# xmcd
#
# Track frame offsets: 
#        150
#        12533
#        23811
#        33214
#        43639
#        55128
#        63980
#        76210
#        86870
#        96907
#        109043
#        121880
#        135344
#        149161
#
# Disc length: 2145 seconds
#
# Revision: 4
# Processed by: cddbd v1.5.2PL0 Copyright (c) Steve Scherf et al.
# Submitted via: ExactAudioCopy v0.95b4
#
DISCID=b9085f0e
DTITLE=Johnny Winter - Texas Blues [CD 2)
DYEAR=1998
DGENRE=
TTITLE0=Leave My Woman Alone
TTITLE1=I Can't Believe You Want To Leave
TTITLE2=Road Runner
TTITLE3=Shed So Many Tears
TTITLE4=Avocado Green
TTITLE5=I Had To Cry
TTITLE6=Please Come Home For Christmas
TTITLE7=That's What Love Does
TTITLE8=By The Light Of The Silvery Moon
TTITLE9=Kiss Tomorrow GoodBye
TTITLE10=Easy Lovin' Girl
TTITLE11=Birds Can't Row Boats (Spiders Of The Mind)
TTITLE12=Take A Chance On My Love
TTITLE13=The World Turns All Around Her
EXTD=
EXTT0=
EXTT1=
EXTT2=
EXTT3=
EXTT4=
EXTT5=
EXTT6=
EXTT7=
EXTT8=
EXTT9=
EXTT10=
EXTT11=
EXTT12=
EXTT13=
PLAYORDER=
